<?xml version="1.0" encoding="UTF-8"?><svg xmlns="http://www.w3.org/2000/svg" xmlns:xlink="http://www.w3.org/1999/xlink" viewBox="0 0 503 503"><defs><style>.cls-1{fill:#7a94b0;}.cls-2{fill:url(#linear-gradient-7);}.cls-3{fill:url(#linear-gradient-5);}.cls-4{fill:url(#linear-gradient-6);}.cls-5{fill:url(#linear-gradient-4);}.cls-6{fill:url(#linear-gradient-3);}.cls-7{fill:url(#linear-gradient-2);}.cls-8{fill:url(#linear-gradient);}.cls-9{fill:#15375a;}.cls-10{mix-blend-mode:color-dodge;opacity:.74;}.cls-11{isolation:isolate;}.cls-12{fill:none;stroke:url(#radial-gradient);stroke-width:4px;}.cls-13{mix-blend-mode:screen;}</style><linearGradient id="linear-gradient" x1="38.74" y1="126.97" x2="452.74" y2="372.97" gradientTransform="translate(0 504) scale(1 -1)" gradientUnits="userSpaceOnUse"><stop offset="0" stop-color="#07243a"/><stop offset="1" stop-color="#045088"/></linearGradient><linearGradient id="linear-gradient-2" x1="1.75" y1="500.11" x2="2.75" y2="500.11" gradientTransform="translate(95199.86 -57843.14) rotate(58.74) scale(222.58)" gradientUnits="userSpaceOnUse"><stop offset="0" stop-color="#04204e"/><stop offset="1" stop-color="#094ab4"/></linearGradient><linearGradient id="linear-gradient-3" x1="-3.48" y1="503" x2="-2.48" y2="503" gradientTransform="translate(-286.7 109024.79) rotate(-180) scale(216.25)" gradientUnits="userSpaceOnUse"><stop offset="0" stop-color="#2e3098"/><stop offset="1" stop-color="#0f1032"/></linearGradient><linearGradient id="linear-gradient-4" x1="1.56" y1="500.07" x2="2.56" y2="500.07" gradientTransform="translate(100047.66 -53514.92) rotate(61.98) scale(226.7)" gradientUnits="userSpaceOnUse"><stop offset="0" stop-color="#00f0e2"/><stop offset="1" stop-color="#008a82"/></linearGradient><linearGradient id="linear-gradient-5" x1="-1.27" y1="500.07" x2="-.27" y2="500.07" gradientTransform="translate(108446.65 47186.98) rotate(113.42) scale(235.8)" gradientUnits="userSpaceOnUse"><stop offset="0" stop-color="#f35bf8"/><stop offset="1" stop-color="#8f3692"/></linearGradient><linearGradient id="linear-gradient-6" x1="-3.46" y1="502.74" x2="-2.46" y2="502.74" gradientTransform="translate(7519.4 109011.05) rotate(175.78) scale(216.84)" gradientUnits="userSpaceOnUse"><stop offset="0" stop-color="#013b50"/><stop offset="1" stop-color="#0286b6"/></linearGradient><linearGradient id="linear-gradient-7" x1="1.94" y1="506.11" x2="2.94" y2="506.11" gradientTransform="translate(-88263.97 -54146.71) rotate(-58.09) scale(205.29)" gradientUnits="userSpaceOnUse"><stop offset="0" stop-color="#081f38"/><stop offset="1" stop-color="#2d64a1"/></linearGradient><radialGradient id="radial-gradient" cx="-430.02" cy="635.78" fx="-430.02" fy="635.78" r="1" gradientTransform="translate(171938.61 298818.14) rotate(4.14) scale(448.85 -448.85)" gradientUnits="userSpaceOnUse"><stop offset=".18" stop-color="#fff"/><stop offset=".7" stop-color="#2298ef"/></radialGradient></defs><g class="cls-11"><g id="Layer_1"><path class="cls-8" d="M249.99,502.81c138.8,0,251.31-112.52,251.31-251.31S388.79.19,249.99.19-1.32,112.7-1.32,251.5s112.52,251.31,251.31,251.31Z"/><path class="cls-7" d="M249.99,251.52h0v216.13h0c34.26,0,66.65-7.97,95.44-22.15l24.33-14.02c27.75-18.49,50.99-43.23,67.7-72.21h0c-.04.07-.08.14-.12.21l-187.34-107.96"/><path class="cls-6" d="M437.09,143.64l-187.1,107.83,187.12,107.95c18.27-31.67,28.74-68.41,28.79-107.59v-.56c-.05-39.19-10.53-75.94-28.8-107.62"/><path class="cls-5" d="M250.02,35.35c-34.7,0-67.5,8.18-96.56,22.7l-22.32,12.88c-28.11,18.53-51.63,43.45-68.51,72.68l187.06,107.91.34-.2V35.35"/><path class="cls-3" d="M249.99,35.35v215.98l.34.2,187.06-107.91s.03.06.05.09h0c-16.89-29.27-40.43-54.22-68.56-72.77l-22.32-12.88c-29.07-14.53-61.86-22.7-96.56-22.7"/><path class="cls-4" d="M62.94,143.49c-18.31,31.7-28.8,68.48-28.85,107.71v.56c.05,39.27,10.57,76.08,28.91,107.81h0c-.04-.07-.08-.14-.12-.21l187.12-107.95L62.89,143.57s.03-.06.05-.08h0"/><path class="cls-2" d="M249.99,251.52l-187.34,107.96c16.7,28.89,39.89,53.55,67.58,72l24.33,14.02c28.78,14.18,61.18,22.15,95.44,22.15v-216.12"/><g class="cls-10"><path class="cls-9" d="M395.94,378.39c21.71-12.75,35.04-36.04,35.04-61.22v-131.35c0-25.18-13.33-48.47-35.04-61.22l-109.99-64.61c-22.2-13.04-49.72-13.04-71.92,0l-109.99,64.61c-21.71,12.75-35.04,36.04-35.04,61.22v131.35c0,25.18,13.33,48.47,35.04,61.22l109.99,64.61c22.2,13.04,49.72,13.04,71.92,0l109.99-64.61Z"/></g><g class="cls-10"><path class="cls-1" d="M389.49,332.04v-161.08l-139.5-80.54-139.5,80.54v161.08l139.5,80.54,139.5-80.54Z"/></g><g class="cls-13"><path class="cls-12" d="M249.99,467.75c119.43,0,216.25-96.82,216.25-216.25S369.42,35.25,249.99,35.25,33.74,132.07,33.74,251.5s96.82,216.25,216.25,216.25Z"/></g></g></g></svg>